<svg width="120" height="18" viewBox="0 0 120 18" fill="none" xmlns="http://www.w3.org/2000/svg">
<path d="M58.2862 0.00342736C56.923 -0.0190476 55.5945 0.434164 54.5292 1.28513C53.4058 2.21472 52.6269 3.49441 52.3172 4.91923C52.0829 1.64203 50.5028 0.00342736 47.5769 0.00342736C46.261 -0.02703 44.9778 0.415309 43.9603 1.25016C42.9156 2.14435 42.1992 3.36147 41.9243 4.7088V4.46287C41.9361 3.49818 41.7929 2.53785 41.5002 1.61855C41.4016 1.2071 41.2603 0.807034 41.0788 0.424815H37.5322V17.4541H41.9943V8.25331C42.0176 6.70834 42.3687 5.51446 43.0475 4.67167C43.378 4.25788 43.8014 3.92779 44.2834 3.70816C44.7653 3.48853 45.2922 3.38553 45.8213 3.40751C46.7107 3.40714 47.3369 3.62375 47.6998 4.05734C48.0628 4.49096 48.2442 5.2108 48.2442 6.21685V17.4541H52.7036V8.25599C52.727 6.71102 53.0722 5.51714 53.7394 4.67435C54.0711 4.25737 54.4972 3.92526 54.9825 3.70544C55.4678 3.48562 55.9985 3.3844 56.5307 3.41013C57.4201 3.40977 58.0463 3.6264 58.4093 4.06002C58.7721 4.49359 58.9536 5.21341 58.9536 6.21947V17.4568H63.413V6.00745C63.4144 4.01757 62.9579 2.51943 62.0433 1.51303C61.1288 0.50663 59.8764 0.00342736 58.2862 0.00342736Z" fill="black"/>
<path d="M74.0943 0.00586131C71.5663 0.00444347 69.5123 0.781853 67.9324 2.33809C66.3524 3.8944 65.5625 6.00706 65.5625 8.67608V8.74603C65.5642 11.7423 66.3842 14.0071 68.0225 15.5404C69.7049 17.0222 71.8697 17.8399 74.1116 17.8403C76.3535 17.8408 78.5187 17.0241 80.2017 15.543C81.8403 14.0101 82.6596 11.7336 82.6596 8.71369V8.64374C82.661 5.97504 81.866 3.86822 80.2744 2.32329C78.6828 0.778319 76.6228 0.00584313 74.0943 0.00586131ZM78.1345 9.2369C78.1341 13.0289 76.7881 14.9249 74.0965 14.9249V14.9261C71.4264 14.9261 70.0922 13.03 70.094 9.23795V7.97373C70.0943 6.38213 70.4512 5.15328 71.1647 4.28717C71.5194 3.85844 71.9689 3.51794 72.4777 3.29249C72.9864 3.06704 73.5406 2.9628 74.0965 2.98798C74.6549 2.96335 75.2115 3.06775 75.7231 3.29306C76.2347 3.51838 76.6874 3.85855 77.0463 4.28717C77.7718 5.15468 78.1345 6.38353 78.1345 7.97373V9.2369Z" fill="black"/>
<path d="M95.2761 0.00316071C93.8664 -0.042678 92.4859 0.411302 91.3785 1.28486C90.2985 2.18423 89.566 3.43208 89.3071 4.81346V4.4626C89.3205 3.498 89.1782 2.53755 88.8857 1.61829C88.7861 1.20674 88.644 0.806671 88.4616 0.424549H84.9102V17.4539H89.376V8.25572C89.3756 6.73407 89.756 5.54602 90.5172 4.69157C90.8868 4.27221 91.3446 3.93982 91.8578 3.71823C92.371 3.49664 92.9268 3.39134 93.4855 3.40988C95.3813 3.40988 96.3293 4.34633 96.3293 6.21922V17.4565H100.754V6.00719C100.754 4.0173 100.275 2.51916 99.3141 1.51277C98.3536 0.506363 97.0076 0.00316071 95.2761 0.00316071Z" fill="black"/>
<path d="M117.612 2.32328C116.02 0.778316 113.961 0.00584313 111.433 0.00586131C108.904 0.00444347 106.85 0.781853 105.27 2.33809C103.69 3.8944 102.9 6.00706 102.9 8.67608V8.74603C102.9 11.7423 103.72 14.0071 105.358 15.5404C107.042 17.0226 109.207 17.8403 111.45 17.8403C113.693 17.8403 115.859 17.0226 117.542 15.5404C119.181 14.0074 120 11.731 120 8.71106V8.64111C120 5.97414 119.204 3.8682 117.612 2.32328ZM115.471 9.2369C115.47 13.0289 114.124 14.9249 111.433 14.9249V14.9261C108.764 14.9261 107.43 13.03 107.43 9.23795V7.97373C107.431 6.38213 107.788 5.15328 108.501 4.28717C108.856 3.85838 109.305 3.51784 109.814 3.29239C110.323 3.06693 110.877 2.96272 111.433 2.98798C111.991 2.96347 112.548 3.06792 113.059 3.29323C113.571 3.51853 114.023 3.85864 114.382 4.28717C115.108 5.15468 115.471 6.38353 115.471 7.97373L115.471 9.2369Z" fill="black"/>
<path d="M22.2784 0.122161C22.186 0.0548306 22.0768 0.0144026 21.9628 0.00535834C21.8488 -0.00368589 21.7346 0.0190071 21.6327 0.0709214C21.5309 0.122836 21.4454 0.201943 21.3858 0.299473C21.3261 0.397004 21.2946 0.509147 21.2948 0.62347V7.21021L11.631 0.122161C11.5386 0.0548306 11.4293 0.0144026 11.3154 0.00535834C11.2014 -0.00368589 11.0872 0.0190071 10.9853 0.0709214C10.8835 0.122836 10.798 0.201943 10.7383 0.299473C10.6787 0.397004 10.6472 0.509147 10.6474 0.62347V7.21021L0.983572 0.122161C0.891178 0.0548302 0.781944 0.0144021 0.667978 0.00535817C0.554013 -0.00368575 0.439769 0.0190079 0.337913 0.0709231C0.236056 0.122838 0.150567 0.201947 0.090922 0.299478C0.0312771 0.39701 -0.000192949 0.509154 8.90076e-07 0.623478V9.93034C0.000356762 10.0277 0.0236099 10.1237 0.0678824 10.2104C0.112155 10.2971 0.176206 10.3722 0.254862 10.4297L10.1962 17.7213C10.2886 17.7886 10.3978 17.829 10.5118 17.8381C10.6257 17.8471 10.74 17.8244 10.8418 17.7725C10.9437 17.7206 11.0292 17.6415 11.0888 17.544C11.1485 17.4464 11.1799 17.3343 11.1797 17.22V10.6332L20.8436 17.7213C20.936 17.7887 21.0452 17.8291 21.1591 17.8382C21.2731 17.8472 21.3873 17.8245 21.4892 17.7726C21.591 17.7207 21.6765 17.6416 21.7361 17.544C21.7957 17.4465 21.827 17.3343 21.8268 17.22V10.6329L31.4926 17.7213C31.5849 17.7887 31.6941 17.8291 31.8081 17.8382C31.9221 17.8472 32.0363 17.8245 32.1381 17.7726C32.24 17.7207 32.3254 17.6416 32.385 17.544C32.4446 17.4465 32.476 17.3343 32.4757 17.22V7.91431C32.4754 7.81664 32.452 7.72042 32.4075 7.63346C32.363 7.5465 32.2987 7.47124 32.2197 7.41378L22.2784 0.122161Z" fill="black"/>
</svg>
